<svg height="512pt" viewBox="0 -15 512 512" width="512pt" xmlns="http://www.w3.org/2000/svg"><path d="m151.417969 72.617188c0 40.105468-32.511719 72.617187-72.617188 72.617187s-72.617187-32.511719-72.617187-72.617187c0-40.105469 32.511718-72.617188 72.617187-72.617188s72.617188 32.511719 72.617188 72.617188zm0 0" fill="#454f59"/><path d="m113.171875 72.617188c0 18.984374-15.386719 34.371093-34.371094 34.371093s-34.371093-15.386719-34.371093-34.371093c0-18.984376 15.386718-34.371094 34.371093-34.371094s34.371094 15.386718 34.371094 34.371094zm0 0" fill="#dfdfdd"/><path d="m505.816406 72.617188c0 40.105468-32.511718 72.617187-72.617187 72.617187s-72.617188-32.511719-72.617188-72.617187c0-40.105469 32.511719-72.617188 72.617188-72.617188s72.617187 32.511719 72.617187 72.617188zm0 0" fill="#454f59"/><path d="m467.570312 72.617188c0 18.984374-15.386718 34.371093-34.371093 34.371093s-34.371094-15.386719-34.371094-34.371093c0-18.984376 15.386719-34.371094 34.371094-34.371094s34.371093 15.386718 34.371093 34.371094zm0 0" fill="#dfdfdd"/><path d="m512 244.054688c0-131.191407-114.613281-237.546876-256-237.546876s-256 106.355469-256 237.546876c0 131.191406 114.613281 237.542968 256 237.542968s256-106.351562 256-237.542968zm0 0" fill="#eee"/><path d="m33.996094 244.054688c0-125.890626 105.542968-228.890626 239-237.011719-5.617188-.339844-11.28125-.535157-16.996094-.535157-141.386719 0-256 106.355469-256 237.546876 0 131.191406 114.613281 237.539062 256 237.539062 5.714844 0 11.378906-.191406 16.996094-.53125-133.457032-8.121094-239-111.121094-239-237.007812zm0 0" fill="#dfdfdd"/><path d="m205.371094 216.363281c-4.796875-30.730469-39.371094-50.851562-77.222656-44.9375-37.847657 5.910157-64.640626 35.613281-59.839844 66.34375 4.796875 30.726563 39.371094 50.847657 77.222656 44.9375 37.847656-5.910156 64.640625-35.617187 59.839844-66.34375zm0 0" fill="#454f59"/><path d="m306.636719 216.371094c-4.800781 30.730468 21.992187 60.433594 59.839843 66.347656 37.851563 5.910156 72.425782-14.210938 77.222657-44.941406 4.800781-30.726563-21.992188-60.429688-59.84375-66.34375-37.847657-5.910156-72.421875 14.210937-77.21875 44.9375zm0 0" fill="#454f59"/><path d="m140.1875 216.71875c-4.265625 0-7.726562 3.460938-7.726562 7.726562v17.511719c0 4.265625 3.460937 7.726563 7.726562 7.726563 4.269531 0 7.726562-3.460938 7.726562-7.726563v-17.511719c0-4.265624-3.457031-7.726562-7.726562-7.726562zm0 0" fill="#eee"/><path d="m104.851562 303.832031h-27.363281c-4.265625 0-7.722656 3.457031-7.722656 7.726563 0 4.265625 3.457031 7.726562 7.722656 7.726562h27.363281c4.269532 0 7.726563-3.460937 7.726563-7.726562 0-4.269532-3.460937-7.726563-7.726563-7.726563zm0 0" fill="#ff8cb5"/><path d="m371.8125 216.71875c-4.269531 0-7.726562 3.460938-7.726562 7.726562v17.511719c0 4.265625 3.457031 7.726563 7.726562 7.726563 4.265625 0 7.726562-3.460938 7.726562-7.726563v-17.511719c0-4.265624-3.460937-7.726562-7.726562-7.726562zm0 0" fill="#eee"/><path d="m434.511719 303.832031h-27.363281c-4.269532 0-7.726563 3.457031-7.726563 7.726563 0 4.265625 3.457031 7.726562 7.726563 7.726562h27.363281c4.265625 0 7.722656-3.460937 7.722656-7.726562 0-4.269532-3.457031-7.726563-7.722656-7.726563zm0 0" fill="#ff8cb5"/><path d="m294.867188 294.515625c-3.210938-2.808594-8.089844-2.480469-10.902344.734375-2.683594 3.070312-6.71875 4.832031-11.074219 4.832031-3.414063 0-6.636719-1.085937-9.164063-3.039062v-17.625c7.515626-2.054688 13.589844-7.015625 16.535157-13.40625 1.335937-2.894531-.363281-6.292969-3.449219-7.085938-6.652344-1.703125-13.628906-2.609375-20.8125-2.609375s-14.160156.90625-20.8125 2.609375c-3.085938.792969-4.785156 4.191407-3.449219 7.085938 2.945313 6.390625 9.019531 11.351562 16.535157 13.40625v17.601562c-2.527344 1.957031-5.742188 3.0625-9.164063 3.0625-4.355469 0-8.390625-1.761719-11.074219-4.832031-2.8125-3.214844-7.691406-3.542969-10.902344-.734375-3.214843 2.808594-3.542968 7.691406-.734374 10.902344 5.621093 6.429687 13.894531 10.117187 22.710937 10.117187 6.128906 0 11.996094-1.789062 16.890625-5.035156 4.894531 3.246094 10.761719 5.035156 16.890625 5.035156 8.816406 0 17.089844-3.6875 22.710937-10.117187 2.808594-3.210938 2.480469-8.09375-.734374-10.902344zm0 0" fill="#454f59"/></svg>